<?xml version="1.0" encoding="UTF-8"?>
<svg id="_레이어_1" data-name="레이어 1" xmlns="http://www.w3.org/2000/svg" viewBox="0 0 1090.14 186.91">
  <defs>
    <style>
      .cls-1 {
        fill: #3e4347;
      }

      .cls-2 {
        fill: #c28fef;
      }

      .cls-3 {
        fill: #ff435e;
      }

      .cls-4 {
        fill: #c7e755;
      }

      .cls-5 {
        fill: #94989b;
      }

      .cls-6 {
        fill: #5c6d6d;
      }

      .cls-7 {
        fill: #42ade2;
      }

      .cls-8 {
        fill: #212528;
      }

      .cls-9 {
        fill: #f2b200;
      }
    </style>
  </defs>
  <g>
    <g>
      <path class="cls-6" d="M117.19,25c0-4.84-5-9.68-10-9.68H42.81c-5,0-10,4.84-10,9.68V155.65c0,4.84,5,9.68,10,9.68H107.19c5,0,10-4.84,10-9.68V25Z"/>
      <path class="cls-8" d="M114.84,153.6c0,4.69-4.69,9.38-9.38,9.38H44.53c-4.69,0-9.38-4.69-9.38-9.38V27.04c0-4.69,4.69-9.38,9.38-9.38h60.94c4.69,0,9.38,4.69,9.38,9.38v126.56Z"/>
      <circle class="cls-5" cx="101.95" cy="25.87" r="2.34"/>
      <path class="cls-5" d="M82.03,25.95c0,.65-.31,1.17-.7,1.17h-12.66c-.38,0-.7-.52-.7-1.17s.32-1.17,.7-1.17h12.66c.39,0,.7,.53,.7,1.17Z"/>
      <rect class="cls-1" x="39.84" y="34.07" width="70.31" height="112.5"/>
      <rect class="cls-5" x="66.21" y="151.26" width="17.58" height="7.03" rx="1.76" ry="1.76"/>
      <path class="cls-7" d="M56.25,49.7c0,1.08-.87,1.95-1.95,1.95h-7.81c-1.08,0-1.95-.87-1.95-1.95v-7.81c0-1.08,.87-1.95,1.95-1.95h7.81c1.08,0,1.95,.87,1.95,1.95v7.81h0Z"/>
      <path class="cls-4" d="M62.89,39.93h7.81c1.08,0,1.95,.87,1.95,1.95v7.81c0,1.08-.88,1.95-1.95,1.95h-7.81c-1.08,0-1.95-.88-1.95-1.95v-7.81c0-1.08,.87-1.95,1.95-1.95Z"/>
      <path class="cls-9" d="M89.06,49.7c0,1.08-.87,1.95-1.95,1.95h-7.81c-1.08,0-1.95-.87-1.95-1.95v-7.81c0-1.08,.87-1.95,1.95-1.95h7.81c1.08,0,1.95,.87,1.95,1.95v7.81h0Z"/>
      <path class="cls-7" d="M105.47,49.7c0,1.08-.87,1.95-1.95,1.95h-7.81c-1.08,0-1.95-.87-1.95-1.95v-7.81c0-1.08,.87-1.95,1.95-1.95h7.81c1.08,0,1.95,.87,1.95,1.95v7.81h0Z"/>
      <path class="cls-4" d="M46.49,130.17h7.81c1.08,0,1.95,.87,1.95,1.95v7.81c0,1.08-.88,1.95-1.95,1.95h-7.81c-1.08,0-1.95-.88-1.95-1.95v-7.81c0-1.08,.88-1.95,1.95-1.95Z"/>
      <path class="cls-3" d="M62.89,130.17h7.81c1.08,0,1.95,.87,1.95,1.95v7.81c0,1.08-.88,1.95-1.95,1.95h-7.81c-1.08,0-1.95-.88-1.95-1.95v-7.81c0-1.08,.87-1.95,1.95-1.95Z"/>
      <path class="cls-7" d="M79.3,130.17h7.81c1.08,0,1.95,.87,1.95,1.95v7.81c0,1.08-.88,1.95-1.95,1.95h-7.81c-1.08,0-1.95-.88-1.95-1.95v-7.81c0-1.08,.87-1.95,1.95-1.95Z"/>
      <path class="cls-2" d="M95.7,130.17h7.81c1.08,0,1.95,.87,1.95,1.95v7.81c0,1.08-.88,1.95-1.95,1.95h-7.81c-1.08,0-1.95-.88-1.95-1.95v-7.81c0-1.08,.87-1.95,1.95-1.95Z"/>
      <path class="cls-4" d="M56.25,94.82c0,1.08-.87,1.95-1.95,1.95h-7.81c-1.08,0-1.95-.87-1.95-1.95v-7.81c0-1.08,.87-1.95,1.95-1.95h7.81c1.08,0,1.95,.87,1.95,1.95v7.81h0Z"/>
      <path class="cls-2" d="M62.89,85.05h7.81c1.08,0,1.95,.87,1.95,1.95v7.81c0,1.08-.88,1.95-1.95,1.95h-7.81c-1.08,0-1.95-.88-1.95-1.95v-7.81c0-1.08,.87-1.95,1.95-1.95Z"/>
      <path class="cls-7" d="M89.06,94.82c0,1.08-.87,1.95-1.95,1.95h-7.81c-1.08,0-1.95-.87-1.95-1.95v-7.81c0-1.08,.87-1.95,1.95-1.95h7.81c1.08,0,1.95,.87,1.95,1.95v7.81h0Z"/>
      <path class="cls-3" d="M56.25,79.78c0,1.08-.87,1.95-1.95,1.95h-7.81c-1.08,0-1.95-.87-1.95-1.95v-7.81c0-1.08,.87-1.95,1.95-1.95h7.81c1.08,0,1.95,.87,1.95,1.95v7.81h0Z"/>
      <path class="cls-9" d="M62.89,70.01h7.81c1.08,0,1.95,.87,1.95,1.95v7.81c0,1.08-.87,1.95-1.95,1.95h-7.81c-1.08,0-1.95-.88-1.95-1.95v-7.81c0-1.08,.88-1.95,1.95-1.95Z"/>
      <path class="cls-4" d="M89.06,79.78c0,1.08-.87,1.95-1.95,1.95h-7.81c-1.08,0-1.95-.87-1.95-1.95v-7.81c0-1.08,.87-1.95,1.95-1.95h7.81c1.08,0,1.95,.87,1.95,1.95v7.81h0Z"/>
      <path class="cls-9" d="M105.47,79.78c0,1.08-.87,1.95-1.95,1.95h-7.81c-1.08,0-1.95-.87-1.95-1.95v-7.81c0-1.08,.87-1.95,1.95-1.95h7.81c1.08,0,1.95,.87,1.95,1.95v7.81h0Z"/>
      <path class="cls-2" d="M56.25,64.74c0,1.08-.87,1.95-1.95,1.95h-7.81c-1.08,0-1.95-.87-1.95-1.95v-7.81c0-1.08,.87-1.95,1.95-1.95h7.81c1.08,0,1.95,.87,1.95,1.95v7.81h0Z"/>
      <path class="cls-7" d="M62.89,54.97h7.81c1.08,0,1.95,.87,1.95,1.95v7.81c0,1.08-.87,1.95-1.95,1.95h-7.81c-1.08,0-1.95-.88-1.95-1.95v-7.81c0-1.08,.88-1.95,1.95-1.95Z"/>
      <path class="cls-3" d="M89.06,64.74c0,1.08-.87,1.95-1.95,1.95h-7.81c-1.08,0-1.95-.87-1.95-1.95v-7.81c0-1.08,.87-1.95,1.95-1.95h7.81c1.08,0,1.95,.87,1.95,1.95v7.81h0Z"/>
      <path class="cls-2" d="M105.47,64.74c0,1.08-.87,1.95-1.95,1.95h-7.81c-1.08,0-1.95-.87-1.95-1.95v-7.81c0-1.08,.87-1.95,1.95-1.95h7.81c1.08,0,1.95,.87,1.95,1.95v7.81h0Z"/>
    </g>
    <path d="M276.86,141.94h-123.63v-19.19h123.63v19.19Zm-60.94-75.11c-4.15,8.86-10.54,16.49-19.15,22.89-8.62,6.4-19.3,10.79-32.04,13.18l-9.89-19.48c10.89-1.9,19.81-5.25,26.77-10.03,6.96-4.78,12.01-10.24,15.16-16.37,3.15-6.13,4.72-12.34,4.72-18.64v-9.23h20.65v9.23c0,10.11-2.08,19.59-6.23,28.45Zm15.45-9.52c3.12,6.13,8.19,11.56,15.2,16.3,7.01,4.74,16.03,8.01,27.06,9.81l-10.11,19.48c-12.74-2.39-23.4-6.74-31.97-13.04-8.57-6.3-14.89-13.85-18.97-22.67-4.08-8.81-6.12-18.42-6.12-28.82v-9.23h20.21v9.23c0,6.49,1.56,12.81,4.69,18.93Z"/>
    <path d="M352.88,125.17h-66.72V34.2h66.72V125.17Zm-43.51-18.38h20.21V52.37h-20.21v54.42Zm81.45,50.54h-23.58V21.83h23.58V157.32Zm18.38-66.87h-23.51v-19.41h23.51v19.41Z"/>
    <path d="M536.13,142.82h-123.63v-18.9h123.63v18.9Zm-13.7-93.16h-72.51v44.97h-23.88V30.76h96.39v18.9Zm.73,58.52h-97.12v-18.24h97.12v18.24Zm-4.1-29.81h-75.95v-18.16h75.95v18.16Z"/>
    <path d="M665.62,109.57h-123.49v-18.24h123.49v18.24Zm-10.77-64.89h-102.47V26.22h102.47v18.46Zm-1.1,36.62h-100.05v-18.09h100.05v18.09Zm-74.05,62.48h-23.44v-27.32h23.44v27.32Zm71.63,11.72h-95.07v-18.75h95.07v18.75Zm-59.99-82.32h-23.58V32.96h23.58v40.21Zm23.95,28.86h-23.73v-26.81h23.73v26.81Zm24.1-28.86h-23.58V32.96h23.58v40.21Z"/>
    <path d="M749.01,59.33c-2.56,7.62-6.68,14.23-12.34,19.85-5.67,5.62-12.99,9.79-21.97,12.52l-12.08-18.6c7.67-2.05,13.81-5.06,18.42-9.05,4.61-3.98,7.92-8.5,9.92-13.55,2-5.05,3-10.44,3-16.15v-7.84h18.9v7.84c0,9.03-1.28,17.36-3.84,24.98Zm70.57,74.41h-68.12v15.01h-23.14v-31.93h67.97v-4.03h-68.12v-17.94h91.41v38.89Zm3.15,22.34h-94.41v-18.31h94.41v18.31Zm-62.11-106.31c1.81,4.76,4.88,9,9.23,12.71,4.35,3.71,10.11,6.59,17.29,8.64l-12.23,18.09c-8.5-2.64-15.43-6.63-20.8-11.98-5.37-5.35-9.28-11.65-11.72-18.9-2.44-7.25-3.66-15.25-3.66-23.99v-7.84h19.19v7.84c0,5.52,.9,10.66,2.71,15.42Zm46.14,7.65h-32.89v-18.16h32.89v18.16Zm12.82,32.74h-23.36V21.83h23.36V90.16Z"/>
    <path d="M904.83,94.78h-65.7V31.64h65.7v63.14Zm22.67,12.3c7.11,2.1,12.57,5.16,16.41,9.19s5.75,8.85,5.75,14.47-1.92,10.51-5.75,14.54c-3.83,4.03-9.29,7.08-16.37,9.16-7.08,2.07-15.55,3.11-25.42,3.11s-18.13-1.04-25.23-3.11c-7.11-2.08-12.55-5.13-16.33-9.16-3.78-4.03-5.68-8.87-5.68-14.54s1.89-10.44,5.68-14.47,9.22-7.09,16.3-9.19c7.08-2.1,15.5-3.15,25.27-3.15s18.27,1.05,25.38,3.15Zm-65.08-30.69h19.34v-26.37h-19.34v26.37Zm26.15,46.22c-3.52,.59-6.13,1.54-7.84,2.86-1.71,1.32-2.56,3.1-2.56,5.35,0,2.1,.88,3.81,2.64,5.13s4.39,2.31,7.91,2.97c3.52,.66,7.98,.99,13.4,.99s10.06-.33,13.62-.99c3.56-.66,6.2-1.65,7.91-2.97,1.71-1.32,2.56-3.05,2.56-5.2s-.85-3.96-2.56-5.27c-1.71-1.32-4.32-2.27-7.84-2.86s-8.08-.88-13.7-.88-10.03,.29-13.55,.88Zm44.09-64.09h-32.3v-18.24h32.3v18.24Zm.81,27.61h-33.11v-18.9h33.11v18.9Zm15.75,14.58h-23.36V21.83h23.36V100.71Z"/>
    <path d="M1008.69,84.05c-2.34,10.67-6.27,20.11-11.79,28.31-5.52,8.2-12.82,14.48-21.9,18.82l-14.5-19.34c8.01-3.52,14.44-8.51,19.3-14.98,4.86-6.47,8.31-13.74,10.36-21.83,2.05-8.08,3.08-16.81,3.08-26.18V31.49h18.97v17.36c0,12.79-1.17,24.52-3.52,35.19Zm11.24-9.16c1.88,7.89,5.14,14.89,9.78,21.02,4.64,6.13,10.81,10.83,18.53,14.1l-14.36,18.68c-8.79-4.15-15.8-10.13-21.02-17.94-5.23-7.81-8.95-16.87-11.17-27.17-2.22-10.3-3.33-21.87-3.33-34.72V31.49h18.75v17.36c0,9.47,.94,18.15,2.82,26.04Zm47.64,6.12h-34.64v-18.75h34.64v18.75Zm11.57,76.76h-23.36V21.83h23.36V157.76Z"/>
  </g>
  <text/>
</svg>